<svg width="253" height="87" viewBox="0 0 253 87" fill="none" xmlns="http://www.w3.org/2000/svg">
<rect x="13" y="13" width="13" height="61" rx="6.5" fill="#F5DF17"/>
<rect x="30" y="4" width="13" height="79" rx="6.5" fill="#F70BFC"/>
<rect x="47" y="4.5" width="13" height="78" rx="6.5" fill="#0AFED2"/>
<rect x="64" y="13" width="13" height="61" rx="6.5" fill="#1DFC09"/>
<path d="M94.9541 28.9844H99.667L106.606 48.8193L113.546 28.9844H118.259L108.499 56H104.714L94.9541 28.9844ZM92.4121 28.9844H97.1064L97.96 48.3184V56H92.4121V28.9844ZM116.106 28.9844H120.819V56H115.253V48.3184L116.106 28.9844ZM128.823 56H125.847V39.36H128.823V56ZM127.319 36.352C126.786 36.352 126.327 36.1813 125.943 35.84C125.58 35.4773 125.399 34.9973 125.399 34.4C125.399 33.8027 125.58 33.3333 125.943 32.992C126.327 32.6293 126.786 32.448 127.319 32.448C127.852 32.448 128.3 32.6293 128.663 32.992C129.047 33.3333 129.239 33.8027 129.239 34.4C129.239 34.9973 129.047 35.4773 128.663 35.84C128.3 36.1813 127.852 36.352 127.319 36.352ZM144.693 42.88C144.33 42.5813 143.808 42.2933 143.125 42.016C142.442 41.7387 141.696 41.6 140.885 41.6C140.032 41.6 139.296 41.76 138.677 42.08C138.08 42.3787 137.589 42.8053 137.205 43.36C136.821 43.8933 136.544 44.5333 136.373 45.28C136.202 46.0267 136.117 46.8267 136.117 47.68C136.117 49.6213 136.597 51.1253 137.557 52.192C138.517 53.2373 139.797 53.76 141.397 53.76C142.208 53.76 142.88 53.728 143.413 53.664C143.968 53.5787 144.394 53.4933 144.693 53.408V42.88ZM144.693 31.68L147.669 31.168V55.52C146.986 55.712 146.112 55.904 145.045 56.096C143.978 56.288 142.752 56.384 141.365 56.384C140.085 56.384 138.933 56.1813 137.909 55.776C136.885 55.3707 136.01 54.7947 135.285 54.048C134.56 53.3013 133.994 52.3947 133.589 51.328C133.205 50.24 133.013 49.024 133.013 47.68C133.013 46.4 133.173 45.2267 133.493 44.16C133.834 43.0933 134.325 42.176 134.965 41.408C135.605 40.64 136.384 40.0427 137.301 39.616C138.24 39.1893 139.306 38.976 140.501 38.976C141.461 38.976 142.304 39.104 143.029 39.36C143.776 39.616 144.33 39.8613 144.693 40.096V31.68ZM166.513 45.088H169.617V55.456C169.361 55.5413 168.987 55.6373 168.497 55.744C168.027 55.8507 167.473 55.9573 166.833 56.064C166.214 56.1707 165.531 56.256 164.785 56.32C164.038 56.4053 163.281 56.448 162.513 56.448C160.955 56.448 159.537 56.192 158.257 55.68C156.977 55.168 155.878 54.4213 154.961 53.44C154.043 52.4587 153.329 51.2533 152.817 49.824C152.326 48.3947 152.081 46.752 152.081 44.896C152.081 43.04 152.358 41.3973 152.913 39.968C153.489 38.5173 154.257 37.3013 155.217 36.32C156.177 35.3387 157.297 34.592 158.577 34.08C159.878 33.568 161.265 33.312 162.737 33.312C163.739 33.312 164.625 33.376 165.393 33.504C166.182 33.632 166.854 33.7813 167.409 33.952C167.963 34.1227 168.411 34.2933 168.753 34.464C169.115 34.6347 169.361 34.7627 169.489 34.848L168.497 37.44C167.878 37.0347 167.057 36.704 166.033 36.448C165.009 36.1707 163.963 36.032 162.897 36.032C161.766 36.032 160.731 36.2347 159.793 36.64C158.875 37.0453 158.086 37.632 157.425 38.4C156.785 39.168 156.283 40.1067 155.921 41.216C155.558 42.304 155.377 43.5307 155.377 44.896C155.377 46.2187 155.526 47.424 155.825 48.512C156.145 49.6 156.614 50.5387 157.233 51.328C157.873 52.096 158.651 52.6933 159.569 53.12C160.507 53.5467 161.606 53.76 162.865 53.76C163.761 53.76 164.518 53.7173 165.137 53.632C165.777 53.5253 166.235 53.4293 166.513 53.344V45.088ZM179.917 53.856C180.621 53.856 181.239 53.8453 181.773 53.824C182.327 53.7813 182.786 53.7173 183.149 53.632V48.672C182.935 48.5653 182.583 48.48 182.093 48.416C181.623 48.3307 181.047 48.288 180.365 48.288C179.917 48.288 179.437 48.32 178.925 48.384C178.434 48.448 177.975 48.5867 177.549 48.8C177.143 48.992 176.802 49.2693 176.525 49.632C176.247 49.9733 176.109 50.432 176.109 51.008C176.109 52.0747 176.45 52.8213 177.133 53.248C177.815 53.6533 178.743 53.856 179.917 53.856ZM179.661 38.944C180.855 38.944 181.858 39.104 182.669 39.424C183.501 39.7227 184.162 40.16 184.653 40.736C185.165 41.2907 185.527 41.9627 185.741 42.752C185.954 43.52 186.061 44.3733 186.061 45.312V55.712C185.805 55.7547 185.442 55.8187 184.973 55.904C184.525 55.968 184.013 56.032 183.437 56.096C182.861 56.16 182.231 56.2133 181.549 56.256C180.887 56.32 180.226 56.352 179.565 56.352C178.626 56.352 177.762 56.256 176.973 56.064C176.183 55.872 175.501 55.5733 174.925 55.168C174.349 54.7413 173.901 54.1867 173.581 53.504C173.261 52.8213 173.101 52 173.101 51.04C173.101 50.1227 173.282 49.3333 173.645 48.672C174.029 48.0107 174.541 47.4773 175.181 47.072C175.821 46.6667 176.567 46.368 177.421 46.176C178.274 45.984 179.17 45.888 180.109 45.888C180.407 45.888 180.717 45.9093 181.037 45.952C181.357 45.9733 181.655 46.016 181.933 46.08C182.231 46.1227 182.487 46.1653 182.701 46.208C182.914 46.2507 183.063 46.2827 183.149 46.304V45.472C183.149 44.9813 183.095 44.5013 182.989 44.032C182.882 43.5413 182.69 43.1147 182.413 42.752C182.135 42.368 181.751 42.0693 181.261 41.856C180.791 41.6213 180.173 41.504 179.405 41.504C178.423 41.504 177.559 41.5787 176.813 41.728C176.087 41.856 175.543 41.9947 175.181 42.144L174.829 39.68C175.213 39.5093 175.853 39.3493 176.749 39.2C177.645 39.0293 178.615 38.944 179.661 38.944ZM195.995 56.32C194.161 56.2773 192.859 55.8827 192.091 55.136C191.323 54.3893 190.939 53.2267 190.939 51.648V31.68L193.915 31.168V51.168C193.915 51.6587 193.958 52.064 194.043 52.384C194.129 52.704 194.267 52.96 194.459 53.152C194.651 53.344 194.907 53.4933 195.227 53.6C195.547 53.6853 195.942 53.76 196.411 53.824L195.995 56.32ZM204.745 56.32C202.911 56.2773 201.609 55.8827 200.841 55.136C200.073 54.3893 199.689 53.2267 199.689 51.648V31.68L202.665 31.168V51.168C202.665 51.6587 202.708 52.064 202.793 52.384C202.879 52.704 203.017 52.96 203.209 53.152C203.401 53.344 203.657 53.4933 203.977 53.6C204.297 53.6853 204.692 53.76 205.161 53.824L204.745 56.32ZM207.575 47.712C207.575 46.24 207.789 44.96 208.215 43.872C208.642 42.7627 209.207 41.8453 209.911 41.12C210.615 40.3947 211.426 39.8507 212.343 39.488C213.261 39.1253 214.199 38.944 215.159 38.944C217.399 38.944 219.117 39.648 220.311 41.056C221.506 42.4427 222.103 44.5653 222.103 47.424C222.103 47.552 222.103 47.7227 222.103 47.936C222.103 48.128 222.093 48.3093 222.071 48.48H210.679C210.807 50.208 211.309 51.52 212.183 52.416C213.058 53.312 214.423 53.76 216.279 53.76C217.325 53.76 218.199 53.6747 218.903 53.504C219.629 53.312 220.173 53.1307 220.535 52.96L220.951 55.456C220.589 55.648 219.949 55.8507 219.031 56.064C218.135 56.2773 217.111 56.384 215.959 56.384C214.509 56.384 213.25 56.1707 212.183 55.744C211.138 55.296 210.274 54.688 209.591 53.92C208.909 53.152 208.397 52.2453 208.055 51.2C207.735 50.1333 207.575 48.9707 207.575 47.712ZM218.999 46.08C219.021 44.736 218.679 43.6373 217.975 42.784C217.293 41.9093 216.343 41.472 215.127 41.472C214.445 41.472 213.837 41.6107 213.303 41.888C212.791 42.144 212.354 42.4853 211.991 42.912C211.629 43.3387 211.341 43.8293 211.127 44.384C210.935 44.9387 210.807 45.504 210.743 46.08H218.999ZM232.522 39.008C232.778 39.008 233.066 39.0293 233.386 39.072C233.728 39.0933 234.058 39.136 234.378 39.2C234.698 39.2427 234.986 39.296 235.242 39.36C235.52 39.4027 235.722 39.4453 235.85 39.488L235.338 42.08C235.104 41.9947 234.709 41.8987 234.154 41.792C233.621 41.664 232.928 41.6 232.074 41.6C231.52 41.6 230.965 41.664 230.41 41.792C229.877 41.8987 229.525 41.9733 229.354 42.016V56H226.378V40.064C227.082 39.808 227.957 39.5733 229.002 39.36C230.048 39.1253 231.221 39.008 232.522 39.008ZM237.458 59.104C237.692 59.2107 237.991 59.3067 238.354 59.392C238.738 59.4987 239.111 59.552 239.474 59.552C240.647 59.552 241.564 59.2853 242.226 58.752C242.887 58.24 243.484 57.3973 244.018 56.224C242.674 53.664 241.415 50.9547 240.242 48.096C239.09 45.216 238.13 42.304 237.362 39.36H240.562C240.796 40.32 241.074 41.3547 241.394 42.464C241.735 43.5733 242.108 44.7147 242.514 45.888C242.919 47.0613 243.356 48.2347 243.826 49.408C244.295 50.5813 244.786 51.712 245.298 52.8C246.108 50.56 246.812 48.3413 247.41 46.144C248.007 43.9467 248.572 41.6853 249.106 39.36H252.178C251.41 42.496 250.556 45.5147 249.618 48.416C248.679 51.296 247.666 53.9947 246.578 56.512C246.151 57.472 245.703 58.2933 245.234 58.976C244.786 59.68 244.284 60.256 243.73 60.704C243.175 61.152 242.546 61.4827 241.842 61.696C241.159 61.9093 240.38 62.016 239.506 62.016C239.271 62.016 239.026 61.9947 238.77 61.952C238.514 61.9307 238.258 61.888 238.002 61.824C237.767 61.7813 237.543 61.728 237.33 61.664C237.138 61.6 236.999 61.5467 236.914 61.504L237.458 59.104Z" fill="white"/>
</svg>
